<svg width="20" height="21" viewBox="0 0 20 21" fill="none" xmlns="http://www.w3.org/2000/svg">
<g id="Buy">
<path id="Stroke 1" fill-rule="evenodd" clip-rule="evenodd" d="M5.4222 17.8203C5.8442 17.8203 6.1872 18.1633 6.1872 18.5853C6.1872 19.0073 5.8442 19.3493 5.4222 19.3493C5.0002 19.3493 4.6582 19.0073 4.6582 18.5853C4.6582 18.1633 5.0002 17.8203 5.4222 17.8203Z" stroke="#C92071" stroke-width="1.5" stroke-linecap="round" stroke-linejoin="round"/>
<path id="Stroke 3" fill-rule="evenodd" clip-rule="evenodd" d="M16.6752 17.8203C17.0972 17.8203 17.4402 18.1633 17.4402 18.5853C17.4402 19.0073 17.0972 19.3493 16.6752 19.3493C16.2532 19.3493 15.9102 19.0073 15.9102 18.5853C15.9102 18.1633 16.2532 17.8203 16.6752 17.8203Z" stroke="#C92071" stroke-width="1.5" stroke-linecap="round" stroke-linejoin="round"/>
<path id="Stroke 5" d="M0.75 1.25L2.83 1.61L3.793 13.083C3.871 14.018 4.652 14.736 5.59 14.736H16.502C17.398 14.736 18.158 14.078 18.287 13.19L19.236 6.632C19.353 5.823 18.726 5.099 17.909 5.099H3.164" stroke="#C92071" stroke-width="1.5" stroke-linecap="round" stroke-linejoin="round"/>
<path id="Stroke 7" d="M12.126 8.79504H14.899" stroke="#C92071" stroke-width="1.5" stroke-linecap="round" stroke-linejoin="round"/>
</g>
</svg>
